<svg width="36" height="36" viewBox="0 0 36 36" fill="none" xmlns="http://www.w3.org/2000/svg">
<path d="M3.43323e-05 23.4634C3.43323e-05 24.568 0.896952 25.4716 1.99812 25.385C8.02024 24.9112 13.7033 22.3075 18.0054 18.0054C22.3075 13.7032 24.9112 8.02021 25.385 1.99809C25.4716 0.896919 24.568 3.8147e-06 23.4635 1.90735e-06H14.7317C13.6272 1.90735e-06 12.7478 0.900923 12.575 1.99189C12.157 4.63064 10.9157 7.0897 9.00271 9.00268C7.08973 10.9157 4.63067 12.157 1.99192 12.575C0.900957 12.7478 3.62396e-05 13.6271 3.62396e-05 14.7317L3.43323e-05 23.4634Z" fill="#F3EEDF"/>
<path d="M36 12.5366C36 11.432 35.1031 10.5284 34.002 10.615C27.9798 11.0888 22.2968 13.6925 17.9947 17.9946C13.6926 22.2968 11.0889 27.9798 10.6151 34.0019C10.5284 35.1031 11.4321 36 12.5366 36H21.2683C22.3729 36 23.2523 35.0991 23.4251 34.0081C23.843 31.3694 25.0844 28.9103 26.9974 26.9973C28.9103 25.0843 31.3694 23.843 34.0081 23.425C35.0991 23.2522 36 22.3729 36 21.2683V12.5366Z" fill="#F3EEDF"/>
</svg>