<svg width="1000" height="1000" viewBox="0 0 1000 1000" fill="none" xmlns="http://www.w3.org/2000/svg">
<g clip-path="url(#clip0_120_2)">
<path d="M768.293 0H231.707C103.739 0 0 103.739 0 231.707V768.293C0 896.261 103.739 1000 231.707 1000H768.293C896.261 1000 1000 896.261 1000 768.293V231.707C1000 103.739 896.261 0 768.293 0Z" fill="#F97316"/>
<path d="M0 707.317C187.592 707.317 367.501 632.796 500.149 500.149C632.796 367.501 707.317 187.592 707.317 4.21594e-05L353.659 0C353.659 93.7961 316.398 183.75 250.074 250.074C183.751 316.398 93.7961 353.658 1.54589e-05 353.658L0 707.317Z" fill="#141310"/>
<path d="M1000 292.683C812.408 292.683 632.499 367.204 499.851 499.851C367.204 632.499 292.683 812.408 292.683 1000H646.341C646.341 906.204 683.602 816.249 749.926 749.926C816.25 683.602 906.204 646.341 1000 646.341V292.683Z" fill="#141310"/>
</g>
<defs>
<clipPath id="clip0_120_2">
<rect width="1000" height="1000" fill="white"/>
</clipPath>
</defs>
</svg>
