<svg width="1000" height="1000" viewBox="0 0 1000 1000" fill="none" xmlns="http://www.w3.org/2000/svg">
<rect x="3.05176e-05" width="1000" height="1000" rx="231.707" fill="#FFDC4F"/>
<path d="M-4.00235e-07 707.317C187.592 707.317 367.501 632.796 500.149 500.149C632.796 367.501 707.317 187.592 707.317 2.32836e-05L353.659 -1.88758e-05C353.659 93.7961 316.398 183.75 250.074 250.074C183.751 316.398 93.7961 353.658 1.50587e-05 353.658L-4.00235e-07 707.317Z" fill="#141310"/>
<path d="M1000 292.683C812.408 292.683 632.499 367.204 499.851 499.851C367.204 632.499 292.683 812.408 292.683 1000L646.341 1000C646.341 906.204 683.602 816.249 749.926 749.926C816.25 683.602 906.204 646.341 1000 646.341L1000 292.683Z" fill="#141310"/>
</svg>